<svg width="25" height="25" viewBox="0 0 25 25" fill="none" xmlns="http://www.w3.org/2000/svg">
<g clip-path="url(#clip0_1169_12)">
<circle cx="12.5" cy="12.5" r="12.5" fill="#1E1E1E"/>
<path d="M5.74192 15.6131C4.89353 16.1029 3.78967 15.8145 3.47547 14.8866C3.03593 13.5886 2.89608 12.1995 3.077 10.8253C3.3356 8.86101 4.23511 7.03696 5.63604 5.63604C7.03696 4.23511 8.86101 3.3356 10.8253 3.077C12.1995 2.89608 13.5886 3.03593 14.8866 3.47547C15.8145 3.78967 16.1029 4.89353 15.6131 5.74192C15.1233 6.59032 14.0344 6.84737 13.074 6.65441C12.49 6.53708 11.8868 6.51544 11.2883 6.59424C10.0983 6.7509 8.99328 7.29585 8.14457 8.14457C7.29585 8.99328 6.7509 10.0983 6.59424 11.2883C6.51544 11.8868 6.53708 12.49 6.65441 13.074C6.84737 14.0344 6.59032 15.1233 5.74192 15.6131Z" fill="#0D0D0D"/>
</g>
<defs>
<clipPath id="clip0_1169_12">
<rect width="25" height="25" fill="white"/>
</clipPath>
</defs>
</svg>
