<svg width="28" height="28" viewBox="0 0 28 28" fill="none" xmlns="http://www.w3.org/2000/svg">
<path d="M6.74192 17.6131C5.89353 18.1029 4.78967 17.8145 4.47547 16.8866C4.03593 15.5886 3.89608 14.1995 4.077 12.8253C4.3356 10.861 5.23511 9.03696 6.63604 7.63604C8.03696 6.23511 9.86101 5.3356 11.8253 5.077C13.1995 4.89608 14.5886 5.03593 15.8866 5.47547C16.8145 5.78967 17.1029 6.89353 16.6131 7.74192C16.1233 8.59032 15.0344 8.84737 14.074 8.65441C13.49 8.53708 12.8868 8.51544 12.2883 8.59424C11.0983 8.7509 9.99328 9.29585 9.14457 10.1446C8.29585 10.9933 7.7509 12.0983 7.59424 13.2883C7.51544 13.8868 7.53708 14.49 7.65441 15.074C7.84737 16.0344 7.59032 17.1233 6.74192 17.6131Z" fill="#0D0D0D"/>
<rect x="20.2759" width="11.2205" height="28.6746" rx="1" transform="rotate(45 20.2759 0)" fill="#1E1E1E"/>
<path d="M19 7L9 17" stroke="#0D0D0D" stroke-width="3" stroke-linecap="round"/>
</svg>
