<svg width="140" height="140" viewBox="0 0 140 140" fill="none" xmlns="http://www.w3.org/2000/svg"><path d="M88.365 110.967c.577 3.376-2.976 5.955-6.004 4.36l-11.896-6.251a1 1 0 0 0-.93 0l-11.891 6.249-.002.002c-3.037 1.606-6.581-.993-6.005-4.36l2.275-13.242a1 1 0 0 0-.288-.886l-9.617-9.372c-2.459-2.393-1.102-6.571 2.29-7.062l13.255-1.93a1 1 0 0 0 .753-.548l5.941-12.05c.761-1.542 2.244-2.305 3.709-2.305 1.469 0 2.96.771 3.72 2.303l5.942 12.05a1 1 0 0 0 .752.547l13.255 1.93c3.392.491 4.749 4.669 2.29 7.062l-9.618 9.372a1 1 0 0 0-.288.886l2.275 13.242ZM41.42 4.764l17.375 28.955c.356.594.013 1.43-.742 1.589a57.6 57.6 0 0 0-25.769 12.747c-.493.425-1.22.325-1.563-.165L1.618 6.312C.051 4.072 1.651 1 4.382 1h30.393a7.75 7.75 0 0 1 6.645 3.764Zm57.157 0A7.75 7.75 0 0 1 105.225 1h30.393c2.731 0 4.331 3.073 2.765 5.312l-29.105 41.576c-.342.49-1.069.59-1.563.165a57.6 57.6 0 0 0-25.768-12.745c-.756-.159-1.098-.995-.742-1.589Z" stroke="#1E1E1E" stroke-width="2"/><path d="M22.875 91.875C22.875 65.849 43.974 44.75 70 44.75s47.125 21.1 47.125 47.125C117.125 117.901 96.025 139 70 139c-26.026 0-47.125-21.099-47.125-47.125Z" stroke="#1E1E1E" stroke-width="2"/></svg>