<svg width="140" height="140" viewBox="0 0 140 140" fill="none" xmlns="http://www.w3.org/2000/svg">
<path d="M121.902 136.312L121.9 136.315C118.327 139.912 112.509 139.915 108.906 136.312L76.8866 104.293C71.2265 98.6329 69.8813 90.3299 72.7225 83.3286C73.1797 82.202 72.9917 80.8473 72.0757 79.9313L44.5231 52.3787C43.9605 51.8161 43.1974 51.5 42.4018 51.5H27.2498C26.935 51.5 26.6386 51.3518 26.4498 51.1L1.84051 18.2877C1.54192 17.8896 1.58151 17.3325 1.9334 16.9806L16.9803 1.93365C17.3322 1.58176 17.8893 1.54216 18.2874 1.84075L51.0998 26.45C51.3516 26.6389 51.4998 26.9352 51.4998 27.25V42.402C51.4998 43.1977 51.8158 43.9608 52.3784 44.5234L79.928 72.0729C80.8463 72.9913 82.205 73.1774 83.3329 72.7168C90.3301 69.859 98.6316 71.2258 104.293 76.8868L136.312 108.906C139.885 112.479 139.889 118.3 136.311 121.904C136.31 121.904 136.31 121.904 136.31 121.905L121.902 136.312ZM137.853 30.0968L137.854 30.1009C140.999 42.7356 137.64 56.645 127.754 66.5312C124.631 69.6541 121.069 72.0441 117.296 73.8359C116.952 73.9995 116.523 73.929 116.227 73.633L111.887 69.2929C106.23 63.6362 98.702 60.5234 90.699 60.5234C88.7549 60.5234 86.7752 60.7218 84.841 61.1009C84.4685 61.1739 84.1049 61.062 83.865 60.8221L62.7733 39.7305C62.5877 39.5449 62.4885 39.3032 62.4888 39.0616C62.4992 29.3216 66.081 19.6338 73.4686 12.2462C83.3263 2.38849 97.2347 -0.971946 109.87 2.1459C111.621 2.59024 112.208 4.74908 110.965 5.99211L91.3483 25.6083C90.6634 26.2932 90.3513 27.2666 90.5104 28.2221L93.1966 44.3636C93.4072 45.6286 94.3985 46.6199 95.6634 46.8304L111.805 49.5167C112.76 49.6757 113.734 49.3637 114.419 48.6788L134.035 29.0626C135.299 27.7986 137.44 28.4077 137.853 30.0968ZM5.82014 110.848L5.82038 110.847L46.078 70.5634C46.4685 70.1727 47.1019 70.1726 47.4925 70.5632L60.7966 83.8673C61.0354 84.1061 61.1486 84.4697 61.0774 84.8458C60.0969 90.0277 60.6156 95.2888 62.2698 100.19C62.4077 100.598 62.3055 101.026 62.0322 101.299L29.152 134.18C22.7066 140.625 12.2656 140.625 5.82014 134.18C-0.625269 127.734 -0.625269 117.293 5.82014 110.848ZM9.93726 122.5C9.93726 126.662 13.3381 130.062 17.4998 130.062C21.6915 130.062 25.0623 126.659 25.0623 122.5C25.0623 118.311 21.6888 114.938 17.4998 114.938C13.3108 114.938 9.93726 118.311 9.93726 122.5Z" stroke="#1E1E1E" stroke-width="2"/>
</svg>