<svg width="335" height="166" viewBox="0 0 335 166" fill="none" xmlns="http://www.w3.org/2000/svg">
<path d="M145.861 157.462V11.601M5.12918 34.6823L37.1866 11.2804M7.3732 137.907L37.8277 160.347M163.172 79.8833V13.845M171.828 79.8833V13.845" stroke="#090909" stroke-width="3"/>
<path d="M114.342 70.9336L91.8358 56.5589C90.8447 55.9259 89.5753 55.9304 88.5886 56.5702L66.4442 70.9313C65.5913 71.4845 65.0765 72.4318 65.0765 73.4484V98.0408C65.0765 99.1051 65.6404 100.09 66.5583 100.628L88.7019 113.621C89.6332 114.168 90.7862 114.171 91.7211 113.631L114.228 100.625C115.156 100.089 115.727 99.099 115.727 98.0276V73.4619C115.727 72.438 115.205 71.4847 114.342 70.9336Z" stroke="#246190" stroke-width="3"/>
<path d="M87.1888 69.5876L77.4146 75.5371C75.9241 76.4444 75.0143 78.0631 75.0143 79.8081V90.858C75.0143 92.603 75.9241 94.2217 77.4146 95.129L87.1888 101.078C88.771 102.042 90.7561 102.051 92.3475 101.103L102.387 95.1221C103.9 94.2204 104.828 92.5885 104.828 90.8266V79.8394C104.828 78.0775 103.9 76.4456 102.387 75.5439L92.3475 69.5631C90.7561 68.615 88.771 68.6245 87.1888 69.5876Z" stroke="#BBBBBB" stroke-width="3"/>
<path d="M163.172 79.8833V89.8211M110.278 158.424H42.7608C42.059 158.424 41.3794 158.178 40.8403 157.729L39.7512 156.821M192.024 11.9215H167.66H43.1762C42.6139 11.9215 42.063 12.0795 41.5862 12.3775L39.7512 13.5244M9.96942 35.9646L9.88859 36.0238C9.11389 36.5908 8.65738 37.4944 8.66053 38.4544L8.97204 133.465C8.97463 134.257 9.2905 135.016 9.8507 135.576L9.93781 135.663" stroke="#BBBBBB" stroke-width="3"/>
<path d="M39.7512 -2.82487V14.4861M0 22.5005L10.0685 36.1066C11.0573 37.4428 12.944 37.7203 14.2756 36.7254L38.5468 18.5917C39.3048 18.0254 39.7512 17.1346 39.7512 16.1884V14.4861M192.024 4.86891V8.7158V11.8067C192.024 13.4636 193.367 14.8067 195.024 14.8067H221.402C223.059 14.8067 224.402 13.4636 224.402 11.8067V4.86891M39.7512 14.4861L31.4163 2.62489M0 148.807L10.0685 135.201C11.0573 133.864 12.944 133.587 14.2756 134.582L38.5468 152.715C39.3048 153.282 39.7512 154.173 39.7512 155.119V156.821M39.7512 174.132V156.821M39.7512 156.821L31.4163 168.682M163.172 79.8833H160.402C158.745 79.8833 157.402 78.5401 157.402 76.8833V16.845C157.402 15.1881 158.745 13.845 160.402 13.845H174.598C176.255 13.845 177.598 15.1881 177.598 16.845V76.8833C177.598 78.5401 176.255 79.8833 174.598 79.8833H163.172Z" stroke="#246190" stroke-width="3"/>
<path d="M189.139 13.2038L189.139 159.065M329.871 135.984L297.813 159.386M327.627 32.7589L297.172 10.3187M171.828 90.7828L171.828 156.821M163.172 90.7828L163.172 156.821" stroke="#090909" stroke-width="3"/>
<path d="M220.658 99.7325L243.164 114.107C244.155 114.74 245.425 114.736 246.411 114.096L268.556 99.7347C269.409 99.1816 269.923 98.2342 269.923 97.2177L269.923 72.6252C269.923 71.5609 269.36 70.5763 268.442 70.0377L246.298 57.0448C245.367 56.4984 244.214 56.4946 243.279 57.0348L220.772 70.041C219.844 70.577 219.273 71.5671 219.273 72.6385L219.273 97.2042C219.273 98.2281 219.795 99.1813 220.658 99.7325Z" stroke="#B73E3E" stroke-width="3"/>
<path d="M247.811 101.078L257.585 95.129C259.076 94.2217 259.986 92.603 259.986 90.858L259.986 79.8081C259.986 78.0631 259.076 76.4444 257.585 75.5371L247.811 69.5876C246.229 68.6245 244.244 68.615 242.652 69.5631L232.613 75.5439C231.1 76.4457 230.172 78.0775 230.172 79.8394L230.172 90.8266C230.172 92.5886 231.1 94.2204 232.613 95.1222L242.652 101.103C244.244 102.051 246.229 102.042 247.811 101.078Z" stroke="#BBBBBB" stroke-width="3"/>
<path d="M171.828 90.7828L171.828 80.845M224.722 12.2421L292.239 12.2421C292.941 12.2421 293.621 12.4882 294.16 12.9375L295.249 13.845M142.976 158.745L167.34 158.745L291.824 158.745C292.386 158.745 292.937 158.587 293.414 158.289L295.249 157.142M325.031 134.701L325.111 134.642C325.886 134.075 326.343 133.172 326.339 132.212L326.028 37.2015C326.025 36.4092 325.709 35.6502 325.149 35.09L325.062 35.0029" stroke="#BBBBBB" stroke-width="3"/>
<path d="M295.249 173.491L295.249 156.18M335 148.166L324.931 134.559C323.943 133.223 322.056 132.946 320.724 133.941L296.453 152.074C295.695 152.641 295.249 153.531 295.249 154.478L295.249 156.18M142.976 165.797L142.976 161.95L142.976 158.859C142.976 157.203 141.633 155.859 139.976 155.859L113.598 155.859C111.941 155.859 110.598 157.203 110.598 158.859L110.598 165.797M295.249 156.18L303.584 168.041M335 21.8593L324.931 35.4654C323.943 36.8016 322.056 37.0791 320.724 36.0842L296.453 17.9506C295.695 17.3843 295.249 16.4935 295.249 15.5473L295.249 13.845M295.249 -3.46601L295.249 13.845M295.249 13.845L303.584 1.98375M171.828 90.7828L174.598 90.7828C176.255 90.7828 177.598 92.1259 177.598 93.7828L177.598 153.821C177.598 155.478 176.255 156.821 174.598 156.821L160.402 156.821C158.745 156.821 157.402 155.478 157.402 153.821L157.402 93.7828C157.402 92.1259 158.745 90.7828 160.402 90.7828L171.828 90.7828Z" stroke="#B73E3E" stroke-width="3"/>
</svg>
