<svg width="226" height="166" viewBox="0 0 226 166" fill="none" xmlns="http://www.w3.org/2000/svg">
<path d="M145.861 157.462V11.601M5.12918 34.6823L37.1866 11.2804M7.3732 137.907L37.8277 160.347M163.172 79.8833V13.845M171.828 79.8833V13.845" stroke="#090909" stroke-width="3"/>
<path d="M114.342 70.9336L91.8358 56.5589C90.8447 55.9259 89.5753 55.9304 88.5886 56.5702L66.4442 70.9313C65.5913 71.4845 65.0765 72.4318 65.0765 73.4484V98.0408C65.0765 99.1051 65.6404 100.09 66.5583 100.628L88.7019 113.621C89.6332 114.168 90.7862 114.171 91.7211 113.631L114.228 100.625C115.156 100.089 115.727 99.099 115.727 98.0276V73.4619C115.727 72.438 115.205 71.4847 114.342 70.9336Z" stroke="#246190" stroke-width="3"/>
<path d="M87.1888 69.5876L77.4146 75.5371C75.9241 76.4444 75.0143 78.0631 75.0143 79.8081V90.858C75.0143 92.603 75.9241 94.2217 77.4146 95.129L87.1888 101.078C88.771 102.042 90.7561 102.051 92.3475 101.103L102.387 95.1221C103.9 94.2204 104.828 92.5885 104.828 90.8266V79.8394C104.828 78.0775 103.9 76.4456 102.387 75.5439L92.3475 69.5631C90.7561 68.615 88.771 68.6245 87.1888 69.5876Z" stroke="#BBBBBB" stroke-width="3"/>
<path d="M163.172 79.8833V89.8211M110.278 158.424H42.7608C42.059 158.424 41.3794 158.178 40.8403 157.729L39.7512 156.821M192.024 11.9215H167.66H43.1762C42.6139 11.9215 42.063 12.0795 41.5862 12.3775L39.7512 13.5244M9.96942 35.9646L9.88859 36.0238C9.11389 36.5908 8.65738 37.4944 8.66053 38.4544L8.97204 133.465C8.97463 134.257 9.2905 135.016 9.8507 135.576L9.93781 135.663" stroke="#BBBBBB" stroke-width="3"/>
<path d="M39.7512 -2.82487V14.4861M0 22.5005L10.0685 36.1066C11.0573 37.4428 12.944 37.7203 14.2756 36.7254L38.5468 18.5917C39.3048 18.0254 39.7512 17.1346 39.7512 16.1884V14.4861M192.024 4.86891V8.7158V11.8067C192.024 13.4636 193.367 14.8067 195.024 14.8067H221.402C223.059 14.8067 224.402 13.4636 224.402 11.8067V4.86891M39.7512 14.4861L31.4163 2.62489M0 148.807L10.0685 135.201C11.0573 133.864 12.944 133.587 14.2756 134.582L38.5468 152.715C39.3048 153.282 39.7512 154.173 39.7512 155.119V156.821M39.7512 174.132V156.821M39.7512 156.821L31.4163 168.682M163.172 79.8833H160.402C158.745 79.8833 157.402 78.5401 157.402 76.8833V16.845C157.402 15.1881 158.745 13.845 160.402 13.845H174.598C176.255 13.845 177.598 15.1881 177.598 16.845V76.8833C177.598 78.5401 176.255 79.8833 174.598 79.8833H163.172Z" stroke="#246190" stroke-width="3"/>
</svg>
