<svg width="226" height="166" viewBox="0 0 226 166" fill="none" xmlns="http://www.w3.org/2000/svg">
<path d="M80.1388 13.2038L80.1388 159.065M220.871 135.984L188.813 159.386M218.627 32.7589L188.172 10.3187M62.8278 90.7828L62.8278 156.821M54.1723 90.7828L54.1723 156.821" stroke="#090909" stroke-width="3"/>
<path d="M111.658 99.7325L134.164 114.107C135.155 114.74 136.425 114.736 137.411 114.096L159.556 99.7347C160.409 99.1816 160.923 98.2342 160.923 97.2177L160.923 72.6252C160.923 71.5609 160.36 70.5763 159.442 70.0377L137.298 57.0448C136.367 56.4984 135.214 56.4946 134.279 57.0348L111.772 70.041C110.844 70.577 110.273 71.5671 110.273 72.6385L110.273 97.2042C110.273 98.2281 110.795 99.1813 111.658 99.7325Z" stroke="#B73E3E" stroke-width="3"/>
<path d="M138.811 101.078L148.585 95.129C150.076 94.2217 150.986 92.603 150.986 90.858L150.986 79.8081C150.986 78.0631 150.076 76.4444 148.585 75.5371L138.811 69.5876C137.229 68.6245 135.244 68.615 133.652 69.5631L123.613 75.5439C122.1 76.4457 121.172 78.0775 121.172 79.8394L121.172 90.8266C121.172 92.5886 122.1 94.2204 123.613 95.1222L133.652 101.103C135.244 102.051 137.229 102.042 138.811 101.078Z" stroke="#BBBBBB" stroke-width="3"/>
<path d="M62.8277 90.7828L62.8277 80.845M115.722 12.2421L183.239 12.2421C183.941 12.2421 184.621 12.4882 185.16 12.9375L186.249 13.845M33.9761 158.745L58.3397 158.745L182.824 158.745C183.386 158.745 183.937 158.587 184.414 158.289L186.249 157.142M216.031 134.701L216.111 134.642C216.886 134.075 217.343 133.172 217.339 132.212L217.028 37.2015C217.025 36.4092 216.709 35.6502 216.149 35.09L216.062 35.0029" stroke="#BBBBBB" stroke-width="3"/>
<path d="M186.249 173.491L186.249 156.18M226 148.166L215.931 134.559C214.943 133.223 213.056 132.946 211.724 133.941L187.453 152.074C186.695 152.641 186.249 153.531 186.249 154.478L186.249 156.18M33.9761 165.797L33.9761 161.95L33.9761 158.859C33.9761 157.203 32.6329 155.859 30.9761 155.859L4.59808 155.859C2.94123 155.859 1.59808 157.203 1.59808 158.859L1.59808 165.797M186.249 156.18L194.584 168.041M226 21.8593L215.931 35.4654C214.943 36.8016 213.056 37.0791 211.724 36.0842L187.453 17.9506C186.695 17.3843 186.249 16.4935 186.249 15.5473L186.249 13.845M186.249 -3.46601L186.249 13.845M186.249 13.845L194.584 1.98375M62.8277 90.7828L65.5981 90.7828C67.2549 90.7828 68.5981 92.1259 68.5981 93.7828L68.5981 153.821C68.5981 155.478 67.2549 156.821 65.5981 156.821L51.4019 156.821C49.7451 156.821 48.4019 155.478 48.4019 153.821L48.4019 93.7828C48.4019 92.1259 49.7451 90.7828 51.4019 90.7828L62.8277 90.7828Z" stroke="#B73E3E" stroke-width="3"/>
</svg>
